<svg width="789" height="129" viewBox="0 0 789 129" fill="none" xmlns="http://www.w3.org/2000/svg">
<path fill-rule="evenodd" clip-rule="evenodd" d="M0 0H103.324V68.7584H68.8824V103.138H0V0ZM123.989 89.3861H89.5474V123.765H123.989V89.3861Z" fill="black"/>
<path d="M179.955 27.5033H226.531C230.379 27.5033 233.622 27.6779 236.259 28.027C238.923 28.3493 241.116 28.8463 242.837 29.5177C244.559 30.1892 245.878 31.0218 246.793 32.0156C247.734 33.0094 248.421 34.1777 248.851 35.5206C249.282 36.8636 249.524 38.3677 249.578 40.0329C249.659 41.6982 249.699 43.538 249.699 45.5524C249.699 47.6474 249.645 49.5812 249.538 51.3539C249.457 53.1266 249.147 54.738 248.609 56.1884C248.098 57.612 247.264 58.8743 246.107 59.9755C244.976 61.0499 243.349 61.9496 241.223 62.6748C239.124 63.4 236.447 63.9506 233.191 64.3266C229.962 64.7027 225.98 64.8907 221.244 64.8907H187.704V89.3861H179.955V27.5033ZM187.704 58.4446H221.244C224.689 58.4446 227.581 58.3909 229.922 58.2834C232.29 58.1491 234.24 57.9208 235.774 57.5985C237.308 57.2762 238.492 56.8196 239.326 56.2287C240.16 55.6379 240.765 54.859 241.142 53.892C241.546 52.9251 241.775 51.7702 241.829 50.4273C241.909 49.0574 241.95 47.4325 241.95 45.5524C241.95 43.8066 241.909 42.3024 241.829 41.0401C241.775 39.7778 241.546 38.7169 241.142 37.8574C240.765 36.9979 240.16 36.313 239.326 35.8027C238.492 35.2923 237.308 34.9029 235.774 34.6343C234.24 34.3389 232.29 34.1509 229.922 34.0703C227.581 33.9897 224.689 33.9494 221.244 33.9494H187.704V58.4446Z" fill="black"/>
<path d="M260.031 89.3861V27.5033H322.026V33.9494H267.78V54.5769H319.442V61.023H267.78V82.9395H322.026V89.3861H260.031Z" fill="black"/>
<path d="M340.107 89.3861H332.358V27.5033H345.959L402.787 81.6508V27.5033H410.536V89.3861H400.205L340.107 33.9494V89.3861Z" fill="black"/>
<path d="M484.195 27.5033H495.819L451.907 57.8L497.111 89.3861H485.487L444.157 61.023H433.825V89.3861H426.076V27.5033H433.825V54.5769H444.157L484.195 27.5033Z" fill="black"/>
<path d="M556.562 26.2141C561.298 26.2141 565.28 26.5095 568.509 27.1004C571.764 27.6645 574.442 28.5374 576.541 29.7192C578.64 30.8741 580.254 32.3379 581.384 34.1105C582.514 35.8832 583.335 37.9648 583.846 40.3552C584.384 42.7457 584.694 45.445 584.774 48.4531C584.882 51.4613 584.936 54.7918 584.936 58.4446C584.936 62.0974 584.882 65.4279 584.774 68.4358C584.694 71.4442 584.384 74.1437 583.846 76.5336C583.335 78.9242 582.514 81.0058 581.384 82.7786C580.254 84.5513 578.64 86.0287 576.541 87.2101C574.442 88.365 571.764 89.2245 568.509 89.7887C565.28 90.3794 561.298 90.6747 556.562 90.6747H533.233C528.498 90.6747 524.502 90.3794 521.246 89.7887C518.017 89.2245 515.354 88.365 513.255 87.2101C511.156 86.0287 509.528 84.5513 508.371 82.7786C507.241 81.0058 506.407 78.9242 505.869 76.5336C505.358 74.1437 505.062 71.4442 504.981 68.4358C504.9 65.4279 504.86 62.0974 504.86 58.4446C504.86 54.7918 504.9 51.4613 504.981 48.4531C505.062 45.445 505.358 42.7457 505.869 40.3552C506.407 37.9648 507.241 35.8832 508.371 34.1105C509.528 32.3379 511.156 30.8741 513.255 29.7192C515.354 28.5374 518.017 27.6645 521.246 27.1004C524.502 26.5095 528.498 26.2141 533.233 26.2141H556.562ZM556.562 84.2288C559.979 84.2288 562.858 84.1351 565.199 83.947C567.567 83.7318 569.518 83.3156 571.052 82.6978C572.585 82.0799 573.769 81.1939 574.604 80.039C575.437 78.8841 576.043 77.3531 576.42 75.4459C576.796 73.5395 577.011 71.2025 577.065 68.4358C577.146 65.6427 577.186 62.3122 577.186 58.4446C577.186 54.5769 577.146 51.2599 577.065 48.4934C577.011 45.7001 576.796 43.35 576.42 41.443C576.043 39.536 575.437 38.005 574.604 36.8502C573.769 35.6952 572.585 34.8089 571.052 34.1911C569.545 33.5734 567.607 33.1705 565.24 32.9825C562.898 32.7677 560.006 32.6602 556.562 32.6602H533.233C529.79 32.6602 526.883 32.7677 524.516 32.9825C522.174 33.1705 520.237 33.5734 518.704 34.1911C517.17 34.8089 515.986 35.6952 515.152 36.8502C514.318 38.005 513.712 39.536 513.336 41.443C512.959 43.35 512.744 45.7001 512.69 48.4934C512.636 51.2599 512.609 54.5769 512.609 58.4446C512.609 62.3122 512.636 65.6427 512.69 68.4358C512.77 71.2025 513 73.5395 513.376 75.4459C513.753 77.3531 514.344 78.8841 515.152 80.039C515.986 81.1939 517.17 82.0799 518.704 82.6978C520.237 83.3156 522.174 83.7318 524.516 83.947C526.883 84.1351 529.79 84.2288 533.233 84.2288H556.562Z" fill="black"/>
<path d="M661.137 27.5033H670.178L636.598 89.3861H626.265L592.685 27.5033H601.726L631.431 84.2288L661.137 27.5033Z" fill="black"/>
<path d="M698.591 27.5033H706.339V89.3861H698.591V27.5033Z" fill="black"/>
<path d="M789 27.5033V33.9494H758.005V89.3861H750.251V33.9494H719.255V27.5033H789Z" fill="black"/>
</svg>
