<?xml version="1.0" encoding="utf-8"?><svg viewBox="0 0 789 129" xmlns="http://www.w3.org/2000/svg" xmlns:xlink="http://www.w3.org/1999/xlink"><style>:root>svg{display:none}:root>svg:target{display:block}</style><svg fill="none" viewBox="0 0 789 129" id="header-logo" xmlns="http://www.w3.org/2000/svg"><path fill-rule="evenodd" clip-rule="evenodd" d="M0 0h103.324v68.758H68.882v34.38H0V0Zm123.989 89.386H89.547v34.379h34.442V89.386Z" fill="#000"/><path d="M179.955 27.503h46.576c3.848 0 7.091.175 9.728.524 2.664.322 4.857.82 6.578 1.49 1.722.672 3.041 1.505 3.956 2.499a9.034 9.034 0 0 1 2.058 3.505c.431 1.343.673 2.847.727 4.512.081 1.665.121 3.505.121 5.52 0 2.094-.054 4.028-.161 5.8-.081 1.774-.391 3.385-.929 4.835-.511 1.424-1.345 2.686-2.502 3.787-1.131 1.075-2.758 1.975-4.884 2.7-2.099.725-4.776 1.276-8.032 1.652-3.229.376-7.211.564-11.947.564h-33.54v24.495h-7.749V27.503Zm7.749 30.942h33.54c3.445 0 6.337-.054 8.678-.162 2.368-.134 4.318-.362 5.852-.684 1.534-.323 2.718-.78 3.552-1.37a5.045 5.045 0 0 0 1.816-2.337c.404-.967.633-2.122.687-3.465.08-1.37.121-2.995.121-4.875 0-1.745-.041-3.25-.121-4.512-.054-1.262-.283-2.323-.687-3.183-.377-.86-.982-1.544-1.816-2.054-.834-.51-2.018-.9-3.552-1.169-1.534-.295-3.484-.483-5.852-.564-2.341-.08-5.233-.12-8.678-.12h-33.54v24.495ZM260.031 89.386V27.503h61.995v6.446H267.78v20.628h51.662v6.446H267.78v21.916h54.246v6.447h-61.995ZM340.107 89.386h-7.749V27.503h13.601l56.828 54.148V27.503h7.749v61.883h-10.331L340.107 33.95v55.437ZM484.195 27.503h11.624L451.907 57.8l45.204 31.586h-11.624l-41.33-28.363h-10.332v28.363h-7.749V27.503h7.749v27.074h10.332l40.038-27.074ZM556.562 26.214c4.736 0 8.718.296 11.947.886 3.255.564 5.933 1.437 8.032 2.62 2.099 1.154 3.713 2.618 4.843 4.39 1.13 1.773 1.951 3.855 2.462 6.245.538 2.39.848 5.09.928 8.098.108 3.008.162 6.339.162 9.992 0 3.652-.054 6.983-.162 9.99-.08 3.01-.39 5.709-.928 8.099-.511 2.39-1.332 4.472-2.462 6.245-1.13 1.772-2.744 3.25-4.843 4.431-2.099 1.155-4.777 2.015-8.032 2.579-3.229.59-7.211.886-11.947.886h-23.329c-4.735 0-8.731-.296-11.987-.886-3.229-.564-5.892-1.424-7.991-2.579-2.099-1.181-3.727-2.659-4.884-4.431-1.13-1.773-1.964-3.855-2.502-6.245-.511-2.39-.807-5.09-.888-8.098a373.896 373.896 0 0 1-.121-9.991c0-3.653.04-6.984.121-9.992.081-3.008.377-5.707.888-8.098.538-2.39 1.372-4.472 2.502-6.244 1.157-1.773 2.785-3.237 4.884-4.392 2.099-1.182 4.762-2.055 7.991-2.619 3.256-.59 7.252-.886 11.987-.886h23.329Zm0 58.015c3.417 0 6.296-.094 8.637-.282 2.368-.215 4.319-.631 5.853-1.25 1.533-.617 2.717-1.503 3.552-2.658.833-1.155 1.439-2.686 1.816-4.593.376-1.906.591-4.243.645-7.01.081-2.793.121-6.124.121-9.991 0-3.868-.04-7.185-.121-9.952-.054-2.793-.269-5.143-.645-7.05-.377-1.907-.983-3.438-1.816-4.593-.835-1.155-2.019-2.041-3.552-2.659-1.507-.618-3.445-1.02-5.812-1.209-2.342-.214-5.234-.322-8.678-.322h-23.329c-3.443 0-6.35.108-8.717.323-2.342.188-4.279.59-5.812 1.208-1.534.618-2.718 1.504-3.552 2.66-.834 1.154-1.44 2.685-1.816 4.592-.377 1.907-.592 4.257-.646 7.05a520.71 520.71 0 0 0-.081 9.952c0 3.867.027 7.198.081 9.99.08 2.767.31 5.105.686 7.01.377 1.908.968 3.44 1.776 4.594.834 1.155 2.018 2.04 3.552 2.659 1.533.618 3.47 1.034 5.812 1.249 2.367.188 5.274.282 8.717.282h23.329ZM661.137 27.503h9.041l-33.58 61.883h-10.333l-33.58-61.883h9.041l29.705 56.726 29.706-56.726ZM698.591 27.503h7.748v61.883h-7.748V27.503ZM789 27.503v6.446h-30.995v55.437h-7.754V33.95h-30.996v-6.446H789Z" fill="#000"/></svg></svg>