<?xml version="1.0" encoding="utf-8"?><svg viewBox="0 0 789 129" xmlns="http://www.w3.org/2000/svg" xmlns:xlink="http://www.w3.org/1999/xlink"><style>:root>svg{display:none}:root>svg:target{display:block}</style><svg fill="none" viewBox="0 0 32 32" id="arrow" xmlns="http://www.w3.org/2000/svg"><path fill-rule="evenodd" clip-rule="evenodd" d="M4.667 16c0-.368.298-.667.667-.667h21.333a.667.667 0 0 1 0 1.333H5.334A.667.667 0 0 1 4.667 16Z" fill="#745F5F"/><path fill-rule="evenodd" clip-rule="evenodd" d="M18.195 7.528c.26-.26.683-.26.943 0l8 8c.26.26.26.683 0 .943l-8 8a.667.667 0 0 1-.943-.943L25.724 16 18.195 8.47a.667.667 0 0 1 0-.943Z" fill="#745F5F"/></svg><svg fill="none" viewBox="0 0 276 45" id="footer-logo" xmlns="http://www.w3.org/2000/svg"><path fill-rule="evenodd" clip-rule="evenodd" d="M0 0h36.144v23.985H24.096v11.993H0V0Zm43.372 31.181H31.325v11.993h12.047V31.18Z" fill="#DFDDDD"/><path d="M62.95 9.594h16.292c1.346 0 2.48.06 3.403.182.932.113 1.699.286 2.3.52.603.235 1.065.525 1.385.872.33.347.57.754.72 1.223.15.468.235.993.254 1.574a39.701 39.701 0 0 1-.014 3.949 5.542 5.542 0 0 1-.325 1.686 3.39 3.39 0 0 1-.875 1.321c-.396.375-.965.689-1.709.942-.734.253-1.67.445-2.81.576-1.129.131-2.522.197-4.178.197H65.66v8.545h-2.71V9.594Zm2.71 10.793h11.733c1.204 0 2.216-.018 3.035-.056.828-.047 1.51-.127 2.047-.239.537-.112.951-.272 1.243-.478.291-.206.503-.478.635-.815.141-.337.221-.74.24-1.209a29.31 29.31 0 0 0 .042-1.7c0-.61-.014-1.134-.042-1.574-.019-.44-.099-.81-.24-1.11a1.563 1.563 0 0 0-.635-.717c-.292-.178-.706-.314-1.243-.408-.536-.103-1.219-.168-2.047-.196a90.706 90.706 0 0 0-3.035-.043H65.66v8.545ZM90.96 31.18V9.595h21.687v2.248H93.672v7.196h18.071v2.249H93.672v7.645h18.975v2.249H90.961ZM118.972 31.18h-2.71V9.595h4.758l19.879 18.888V9.594h2.71V31.18h-3.614l-21.023-19.339v19.339ZM169.378 9.594h4.066l-15.361 10.568 15.813 11.019h-4.067l-14.457-9.894h-3.614v9.894h-2.711V9.594h2.711v9.444h3.614l14.006-9.444ZM194.691 9.145c1.657 0 3.05.103 4.18.309 1.138.196 2.075.501 2.809.913.734.403 1.299.914 1.694 1.532.396.619.683 1.345.861 2.179.189.833.297 1.775.325 2.824.038 1.05.057 2.211.057 3.486 0 1.274-.019 2.436-.057 3.485-.028 1.05-.136 1.991-.325 2.825-.178.834-.465 1.56-.861 2.178-.395.619-.96 1.134-1.694 1.546-.734.403-1.671.703-2.809.9-1.13.206-2.523.309-4.18.309h-8.16c-1.657 0-3.055-.103-4.194-.31-1.129-.196-2.061-.496-2.795-.899-.734-.412-1.304-.927-1.708-1.546-.396-.618-.687-1.344-.876-2.178-.178-.834-.282-1.776-.31-2.825-.028-1.05-.043-2.211-.043-3.485 0-1.275.015-2.436.043-3.486.028-1.049.132-1.99.31-2.825.189-.833.48-1.56.876-2.178.404-.618.974-1.129 1.708-1.532.734-.412 1.666-.717 2.795-.913 1.139-.206 2.537-.31 4.194-.31h8.16Zm0 20.237c1.196 0 2.203-.033 3.022-.098.828-.075 1.51-.22 2.047-.436.536-.215.95-.524 1.242-.927.292-.403.504-.937.636-1.603.132-.665.207-1.48.226-2.445.028-.974.042-2.136.042-3.485 0-1.35-.014-2.507-.042-3.472-.019-.974-.094-1.794-.226-2.46-.132-.664-.344-1.198-.636-1.601-.292-.403-.706-.712-1.242-.928-.527-.215-1.205-.356-2.033-.421a34.189 34.189 0 0 0-3.036-.113h-8.16c-1.205 0-2.222.038-3.05.113-.819.065-1.496.206-2.033.421-.536.216-.95.525-1.242.928-.292.403-.504.937-.636 1.602s-.207 1.485-.225 2.46c-.02.964-.029 2.121-.029 3.47 0 1.35.009 2.512.029 3.486.028.965.108 1.78.239 2.445.132.666.339 1.2.622 1.603.292.402.706.712 1.242.927.537.216 1.214.36 2.033.436a39.62 39.62 0 0 0 3.05.098h8.16ZM231.273 9.594h3.163L222.689 31.18h-3.614L207.328 9.594h3.163l10.391 19.788 10.391-19.788ZM244.375 9.595h2.71v21.587h-2.71V9.595ZM275.999 9.594v2.248h-10.843v19.339h-2.712V11.842h-10.842V9.594h24.397Z" fill="#DFDDDD"/></svg><svg fill="none" viewBox="0 0 789 129" id="header-logo" xmlns="http://www.w3.org/2000/svg"><path fill-rule="evenodd" clip-rule="evenodd" d="M0 0h103.324v68.758H68.882v34.38H0V0Zm123.989 89.386H89.547v34.379h34.442V89.386Z" fill="#000"/><path d="M179.955 27.503h46.576c3.848 0 7.091.175 9.728.524 2.664.322 4.857.82 6.578 1.49 1.722.672 3.041 1.505 3.956 2.499a9.034 9.034 0 0 1 2.058 3.505c.431 1.343.673 2.847.727 4.512.081 1.665.121 3.505.121 5.52 0 2.094-.054 4.028-.161 5.8-.081 1.774-.391 3.385-.929 4.835-.511 1.424-1.345 2.686-2.502 3.787-1.131 1.075-2.758 1.975-4.884 2.7-2.099.725-4.776 1.276-8.032 1.652-3.229.376-7.211.564-11.947.564h-33.54v24.495h-7.749V27.503Zm7.749 30.942h33.54c3.445 0 6.337-.054 8.678-.162 2.368-.134 4.318-.362 5.852-.684 1.534-.323 2.718-.78 3.552-1.37a5.045 5.045 0 0 0 1.816-2.337c.404-.967.633-2.122.687-3.465.08-1.37.121-2.995.121-4.875 0-1.745-.041-3.25-.121-4.512-.054-1.262-.283-2.323-.687-3.183-.377-.86-.982-1.544-1.816-2.054-.834-.51-2.018-.9-3.552-1.169-1.534-.295-3.484-.483-5.852-.564-2.341-.08-5.233-.12-8.678-.12h-33.54v24.495ZM260.031 89.386V27.503h61.995v6.446H267.78v20.628h51.662v6.446H267.78v21.916h54.246v6.447h-61.995ZM340.107 89.386h-7.749V27.503h13.601l56.828 54.148V27.503h7.749v61.883h-10.331L340.107 33.95v55.437ZM484.195 27.503h11.624L451.907 57.8l45.204 31.586h-11.624l-41.33-28.363h-10.332v28.363h-7.749V27.503h7.749v27.074h10.332l40.038-27.074ZM556.562 26.214c4.736 0 8.718.296 11.947.886 3.255.564 5.933 1.437 8.032 2.62 2.099 1.154 3.713 2.618 4.843 4.39 1.13 1.773 1.951 3.855 2.462 6.245.538 2.39.848 5.09.928 8.098.108 3.008.162 6.339.162 9.992 0 3.652-.054 6.983-.162 9.99-.08 3.01-.39 5.709-.928 8.099-.511 2.39-1.332 4.472-2.462 6.245-1.13 1.772-2.744 3.25-4.843 4.431-2.099 1.155-4.777 2.015-8.032 2.579-3.229.59-7.211.886-11.947.886h-23.329c-4.735 0-8.731-.296-11.987-.886-3.229-.564-5.892-1.424-7.991-2.579-2.099-1.181-3.727-2.659-4.884-4.431-1.13-1.773-1.964-3.855-2.502-6.245-.511-2.39-.807-5.09-.888-8.098a373.896 373.896 0 0 1-.121-9.991c0-3.653.04-6.984.121-9.992.081-3.008.377-5.707.888-8.098.538-2.39 1.372-4.472 2.502-6.244 1.157-1.773 2.785-3.237 4.884-4.392 2.099-1.182 4.762-2.055 7.991-2.619 3.256-.59 7.252-.886 11.987-.886h23.329Zm0 58.015c3.417 0 6.296-.094 8.637-.282 2.368-.215 4.319-.631 5.853-1.25 1.533-.617 2.717-1.503 3.552-2.658.833-1.155 1.439-2.686 1.816-4.593.376-1.906.591-4.243.645-7.01.081-2.793.121-6.124.121-9.991 0-3.868-.04-7.185-.121-9.952-.054-2.793-.269-5.143-.645-7.05-.377-1.907-.983-3.438-1.816-4.593-.835-1.155-2.019-2.041-3.552-2.659-1.507-.618-3.445-1.02-5.812-1.209-2.342-.214-5.234-.322-8.678-.322h-23.329c-3.443 0-6.35.108-8.717.323-2.342.188-4.279.59-5.812 1.208-1.534.618-2.718 1.504-3.552 2.66-.834 1.154-1.44 2.685-1.816 4.592-.377 1.907-.592 4.257-.646 7.05a520.71 520.71 0 0 0-.081 9.952c0 3.867.027 7.198.081 9.99.08 2.767.31 5.105.686 7.01.377 1.908.968 3.44 1.776 4.594.834 1.155 2.018 2.04 3.552 2.659 1.533.618 3.47 1.034 5.812 1.249 2.367.188 5.274.282 8.717.282h23.329ZM661.137 27.503h9.041l-33.58 61.883h-10.333l-33.58-61.883h9.041l29.705 56.726 29.706-56.726ZM698.591 27.503h7.748v61.883h-7.748V27.503ZM789 27.503v6.446h-30.995v55.437h-7.754V33.95h-30.996v-6.446H789Z" fill="#000"/></svg></svg>